<?xml version="1.0" encoding="UTF-8"?><svg xmlns="http://www.w3.org/2000/svg" viewBox="0 0 269.09 223.13"><g id="a"/><g id="b"><g id="c"><path d="M244.9,123.52c1.54-13.65,.24-27.65-3.45-40.98C225.89,25.93,168.32-10.79,110.39,2.85,56.59,14.98,18.83,68.86,24.78,123.15,9.98,132.36,0,149.72,0,169.63c0,29.55,21.96,53.5,49.04,53.5s22.29-27.52,22.29-57.07,4.79-49.93-22.29-49.93c-2.14,0-4.24,.17-6.3,.45,5.28-20.48,15.45-39.95,30.5-54.41,32.24-31.93,81.49-34.92,116.65-5.86,18.73,15.03,31.12,36.98,37.12,60.37-2.28-.35-4.6-.55-6.96-.55-27.08,0-22.29,27.52-22.29,57.07s-4.79,49.93,22.29,49.93,49.04-23.95,49.04-53.5c0-19.65-9.72-36.81-24.19-46.12Z"/></g></g></svg>